PathFileType	4	(X/Y/Z)	E:/Marcel_BSc/Marcel/30_01_2025/static_00_hjc.trc	
DataRate	CameraRate	NumFrames	NumMarkers	Units	OrigDataRate	OrigDataStartFrame	OrigNumFrames	
200.00	200.00	4	77	mm	200.00	40	158	
Frame#	Time	FHD			LBHD			RBHD			RBAR			LBAR			RASI			RSACR			LSACR			LASI			USACR			C7			CLAV			T10			RSHO			LSHO			LTHI1			LTHI3			LTHI2			LLFC			LMFC			LTIB1			LTIB2			LTIB3			LMMAL			LLMAL			LHEE			LMT1			LMT5			LMT3			RTHI1			RTHI2			RTHI3			RLFC			RMFC			RTIB1			RTIB3			RTIB2			RLMAL			RMMAL			RHEE			RMT5			RMT1			RMT3			LMEP			LLEP			LDUPA			LMUPA			LUUPA			LUL			LRAD			LRFIN			RUL			RRAD			RUFIN			RMEP			RLEP			RMUPA			RDUPA			RUUPA			*59			*60			*61			*62			*63			*64			*65			*66			*67			*68			*69			*70			LAJC			RAJC			LKJC			RKJC			LHJC			RHJC			
		X1	Y1	Z1	X2	Y2	Z2	X3	Y3	Z3	X4	Y4	Z4	X5	Y5	Z5	X6	Y6	Z6	X7	Y7	Z7	X8	Y8	Z8	X9	Y9	Z9	X10	Y10	Z10	X11	Y11	Z11	X12	Y12	Z12	X13	Y13	Z13	X14	Y14	Z14	X15	Y15	Z15	X16	Y16	Z16	X17	Y17	Z17	X18	Y18	Z18	X19	Y19	Z19	X20	Y20	Z20	X21	Y21	Z21	X22	Y22	Z22	X23	Y23	Z23	X24	Y24	Z24	X25	Y25	Z25	X26	Y26	Z26	X27	Y27	Z27	X28	Y28	Z28	X29	Y29	Z29	X30	Y30	Z30	X31	Y31	Z31	X32	Y32	Z32	X33	Y33	Z33	X34	Y34	Z34	X35	Y35	Z35	X36	Y36	Z36	X37	Y37	Z37	X38	Y38	Z38	X39	Y39	Z39	X40	Y40	Z40	X41	Y41	Z41	X42	Y42	Z42	X43	Y43	Z43	X44	Y44	Z44	X45	Y45	Z45	X46	Y46	Z46	X47	Y47	Z47	X48	Y48	Z48	X49	Y49	Z49	X50	Y50	Z50	X51	Y51	Z51	X52	Y52	Z52	X53	Y53	Z53	X54	Y54	Z54	X55	Y55	Z55	X56	Y56	Z56	X57	Y57	Z57	X58	Y58	Z58	X59	Y59	Z59	X60	Y60	Z60	X61	Y61	Z61	X62	Y62	Z62	X63	Y63	Z63	X64	Y64	Z64	X65	Y65	Z65	X66	Y66	Z66	X67	Y67	Z67	X68	Y68	Z68	X69	Y69	Z69	X70	Y70	Z70	X71	Y71	Z71	X72	Y72	Z72	X73	Y73	Z73	X74	Y74	Z74	X75	Y75	Z75	X76	Y76	Z76	X77	Y77	Z77	

40	0.195	103.42551	579.57489	1818.00317	135.81068	521.22327	1803.19763	131.88892	650.46082	1801.66797	1237.75281	1766.98328	37.50030	1247.99243	-457.99072	32.44318	99.21495	723.95343	1048.15991	307.90494	621.11884	1098.03442	303.67590	557.25745	1095.15125	93.29401	458.59888	1038.49817	299.34955	589.21075	1111.91528	278.24741	582.82379	1566.58105	115.67454	584.08118	1531.33704	280.04544	577.21112	1256.84021	239.45094	733.51630	1604.76855	223.23485	416.53021	1594.88770	227.07013	410.33057	706.98584	256.81641	428.92389	651.32886	209.78064	408.25391	643.74463	220.63948	415.43723	524.75311	173.87849	517.28168	506.25955	221.95427	400.32230	276.31494	269.17883	381.18909	274.98236	242.63762	391.99960	214.28375	268.03827	468.18298	92.41941	287.00708	380.67157	83.79301	344.01813	422.32712	39.19046	115.22067	434.44156	41.44551	145.14616	352.03168	26.11965	122.65481	388.93277	36.07169	206.78049	792.72766	674.88904	253.66159	773.67670	671.06915	225.35628	781.44666	613.17737	202.35313	778.16803	529.33209	178.69128	681.89270	508.64233	259.56793	811.39038	277.79636	291.45584	814.00964	219.55388	240.50116	809.82220	214.45569	292.77158	813.62604	75.53989	245.10660	736.35120	71.11506	339.87738	765.05377	30.59208	173.10739	862.68732	26.11450	109.41229	788.39606	42.53126	134.06120	828.96106	40.15717	160.16542	113.94408	1469.43164	233.11336	115.45813	1508.57349	259.13483	216.63971	1522.86121	226.57385	218.99350	1560.62866	235.39481	280.39139	1564.59705	169.98184	-167.96584	1562.73462	140.78815	-136.97874	1627.68909	167.22107	-236.35315	1656.86084	215.83514	1341.07837	1591.57654	195.20049	1307.58496	1658.61011	226.05635	1394.10474	1681.29651	177.85184	1044.68152	1484.36414	247.33099	1056.98218	1539.39355	246.16481	909.60779	1577.16162	254.08995	969.94312	1564.43298	280.91901	898.13397	1542.07336	117.65520	626.02246	1751.64734	74.77452	552.56702	1741.93921	81.40678	537.13531	1760.74719				125.37328	536.18561	1729.87122										-201.41055	-470.05869	23.70151										277.52267	424.42728	88.10621	268.93909	774.98862	73.32748	197.25899	466.35945	515.50633	190.52221	730.03036	518.98721	198.48495	507.92816	1066.82471	203.55994	672.53613	1073.09717 
41	0.200	103.43269	579.58203	1817.99609	135.81161	521.23553	1803.20337	131.89369	650.47296	1801.67871	1237.75732	1766.97229	37.49038	1247.99646	-457.97327	32.43021	99.23814	723.96002	1048.21472	307.96243	621.14642	1098.03442	303.73761	557.27368	1095.14832	93.34849	458.60553	1038.50085	299.39743	589.23511	1111.91663	278.25928	582.83954	1566.59399	115.69410	584.11053	1531.33716	280.09079	577.23694	1256.86304	239.45079	733.52826	1604.78015	223.24374	416.55368	1594.89563	227.11777	410.34033	706.99939	256.87204	428.92569	651.33551	209.82982	408.24756	643.75085	220.66333	415.44040	524.75421	173.89790	517.27222	506.25537	221.90990	400.00079	276.43317	269.19653	381.19489	274.98694	242.63934	391.98718	214.30432	267.97247	468.18167	92.47368	287.00830	380.66760	83.79311	343.90662	422.42828	39.13955	115.22150	434.43704	41.44645	145.14516	352.02557	26.11926	122.65305	388.93445	36.07290	206.79468	792.75714	674.90076	253.68208	773.69598	671.07910	225.20110	781.60132	613.13892	202.37346	778.17218	529.32574	178.69421	681.90686	508.64508	259.56339	811.40399	277.78943	291.60446	813.97949	219.45010	240.51234	809.82629	214.46245	292.77155	813.63940	75.53178	245.10951	736.34998	71.11483	339.97592	765.31177	30.66459	173.10075	862.67444	26.14019	109.42597	788.39301	42.53415	134.06451	828.97089	40.15883	160.19981	113.94936	1469.43323	233.14453	115.46776	1508.58606	259.15411	216.66090	1522.88000	226.59689	219.00998	1560.64197	235.42319	280.41858	1564.60376	170.01788	-167.96588	1562.76453	140.80385	-136.96161	1627.71240	167.24098	-236.33044	1656.90833	215.88228	1341.08826	1591.57776	195.25278	1307.60730	1658.61646	226.09540	1394.13916	1681.31592	177.91214	1044.67773	1484.38000	247.35831	1057.00037	1539.38599	246.16360	909.62708	1577.18665	254.11169	969.94794	1564.44922	280.93738	898.14813	1542.11780	117.49747	625.60681	1751.59753	74.76711	552.58759	1741.93604	85.60645	535.72491	1759.64319	1240.97278	-49.83520	59.50451	125.36462	536.23431	1729.87476	2021.46692	-1585.90503	-1460.67322	1233.06262	-214.69991	43.24818				-199.13284	-469.91443	24.99878										277.49039	424.42464	88.13339	268.94053	774.99469	73.32331	197.28062	466.35631	515.50479	190.53384	730.03952	518.98541	198.54305	507.93961	1066.82458	203.60028	672.55322	1073.12457 
42	0.205	103.43806	579.59900	1818.00427	135.80478	521.24799	1803.20923	131.89403	650.49011	1801.67432	1237.75903	1766.98645	37.49510	1247.94714	-457.96176	32.32988	99.27217	723.92853	1048.21350	308.00061	621.17200	1098.03711	303.78882	557.29126	1095.17102	93.41147	458.60303	1038.50659	299.47864	589.21405	1111.98535	278.26895	582.85925	1566.61963	115.72255	584.12274	1531.33997	280.12628	577.26202	1256.88123	239.44997	733.55286	1604.79871	223.26971	416.56610	1594.91284	227.18687	410.34192	706.99554	256.89801	428.93860	651.32880	209.87866	408.25864	643.75458	220.68408	415.43787	524.74493	173.91771	517.27161	506.25116	221.92625	399.95737	276.43423	269.20517	381.19055	274.98102	242.64525	391.99127	214.30003	267.98907	468.17545	92.46513	287.00864	380.66745	83.79324	343.89536	422.50336	39.06233	115.22830	434.43109	41.44731	145.14917	352.03003	26.11932	122.65023	388.93860	36.07803	206.82286	792.76715	674.90009	253.72758	773.67322	671.06824	225.19774	781.64069	613.14496	202.37025	778.19098	529.32904	178.70586	681.91766	508.64920	259.55887	811.40717	277.79877	291.62363	813.98303	219.43259	240.49553	809.82196	214.45807	292.76321	813.64435	75.53204	245.11572	736.35498	71.11891	339.91351	765.40790	30.63749	173.11154	862.67761	26.12429	109.41275	788.40210	42.52799	134.06157	828.98230	40.15528	160.21873	113.96304	1469.44250	233.13713	115.49971	1508.58386	259.18939	216.66382	1522.90198	226.61595	219.02155	1560.65417	235.46155	280.47150	1564.61963	170.01468	-167.95082	1562.80896	140.82014	-136.93997	1627.74219	167.25377	-236.30019	1656.93311	215.92552	1341.11597	1591.58594	195.28020	1307.62915	1658.61841	226.12064	1394.18018	1681.33301	177.94675	1044.70532	1484.37158	247.38611	1057.02539	1539.38599	246.16379	909.63977	1577.20325	254.12074	969.96075	1564.45752	280.95410	898.16376	1542.15649	117.45263	625.67334	1751.55811	74.78436	552.61169	1741.92529							125.36700	536.22595	1729.85266	2020.05347	-1585.10583	-1459.43970				143.36450	611.76465	1736.70288	-201.20947	-469.82159	23.73067	31.15508	554.36072	1775.98401							277.49886	424.42145	88.12918	268.93947	774.99966	73.32547	197.30090	466.35474	515.49805	190.53806	730.05432	518.98912	198.60014	507.94714	1066.83881	203.63639	672.55026	1073.12531 
43	0.210	103.43522	579.62054	1818.00293	135.81207	521.25891	1803.20837	131.88947	650.49762	1801.67395	1237.75940	1766.98059	37.49692	1247.99683	-457.97516	32.42404	99.63763	724.66644	1048.38879	308.06262	621.19330	1098.04309	303.83630	557.32135	1095.15710	93.48395	458.59482	1038.51575	299.49908	589.28766	1111.92297	278.27603	582.87537	1566.61865	115.75137	584.14655	1531.34509	280.16785	577.29193	1256.89478	239.40096	733.58252	1604.73425	223.28778	416.57660	1594.92395	227.22520	410.34070	707.00769	256.93164	428.95041	651.33881	209.93588	408.25888	643.75629	220.70592	415.43680	524.75146	173.91367	517.28101	506.27884	221.94240	399.97717	276.43051	269.21652	381.19061	274.98083	242.65469	391.98883	214.29568	267.98679	468.17981	92.46907	287.01511	380.66537	83.78843	343.92404	422.45346	39.08875	115.22491	434.43292	41.44683	145.14529	352.03027	26.12258	122.64698	388.93744	36.07574	206.84410	792.77075	674.91150	253.76071	773.68896	671.05688	225.23717	781.64746	613.13971	202.37086	778.21198	529.32275	178.71353	681.93518	508.65149	259.54510	811.42407	277.78479	291.82245	814.55347	219.87369	240.50281	809.84833	214.45758	292.77115	813.64661	75.52559	245.11745	736.35828	71.11723	340.11142	765.25922	30.64358	173.09381	862.68848	26.13137	109.41309	788.39911	42.53975	134.06680	828.98291	40.14894	160.22426	113.96932	1469.44910	233.15233	115.50510	1508.57825	259.20276	216.67570	1522.90771	226.62347	219.03839	1560.65381	235.46011	280.43884	1564.61536	170.01335	-167.92094	1562.81897	140.82692	-136.91438	1627.76868	167.30067	-236.27522	1656.97546	215.96272	1341.14221	1591.59338	195.31192	1307.65662	1658.62134	226.15227	1394.19324	1681.33557	178.00024	1044.71558	1484.38452	247.40228	1057.05786	1539.40332	246.17441	909.66693	1577.21472	254.13341	969.99634	1564.46875	280.96692	898.19025	1542.17932	117.48963	626.09485	1750.07031	74.80615	552.60626	1741.92810	85.60074	535.73431	1759.65479	1239.89026	-49.21530	58.45276	125.37229	536.25830	1729.85669	2029.15393	-1596.31409	-1463.05151							-201.95930	-469.65170	23.36834										277.50095	424.42259	88.12875	268.94430	775.00244	73.32141	197.30979	466.35890	515.51515	190.54220	730.07358	518.98712	198.66013	507.95808	1066.83643	203.85013	672.92987	1073.21594 
